<?xml version="1.0" standalone="no"?>
<!DOCTYPE svg PUBLIC "-//W3C//DTD SVG 20010904//EN"
 "http://www.w3.org/TR/2001/REC-SVG-20010904/DTD/svg10.dtd">
<svg version="1.0" xmlns="http://www.w3.org/2000/svg"
 width="350.000000pt" height="350.000000pt" viewBox="0 0 350.000000 350.000000"
 preserveAspectRatio="xMidYMid meet">
<metadata>
Created by potrace 1.15, written by Peter Selinger 2001-2017
</metadata>
<g transform="translate(0.000000,350.000000) scale(0.100000,-0.100000)"
fill="#000000" stroke="none">
<path d="M1603 2865 c-276 -50 -497 -212 -637 -466 -48 -87 -114 -267 -132
-359 -28 -147 -49 -410 -64 -830 -5 -146 -13 -289 -16 -317 -6 -49 -5 -53 14
-53 14 0 29 16 50 54 32 56 59 76 68 51 4 -8 1 -29 -5 -46 -6 -18 -9 -34 -7
-36 2 -2 31 2 65 10 34 8 64 10 67 6 6 -11 -4 -15 -81 -32 l-60 -13 -40 -76
c-37 -72 -38 -78 -25 -103 33 -62 109 -51 151 20 12 19 25 35 29 35 18 0 20
-21 5 -51 -26 -49 -10 -45 26 8 43 62 160 179 224 223 28 19 90 56 139 81 79
41 87 47 65 54 -47 15 -164 90 -222 144 -147 136 -247 351 -247 529 l0 65 77
71 c142 131 263 327 312 505 11 41 23 76 25 78 3 3 16 -17 29 -44 63 -123 197
-273 327 -365 69 -49 229 -131 292 -150 29 -9 35 -14 27 -24 -19 -23 0 -37 26
-20 19 13 34 14 74 6 28 -5 64 -16 80 -24 15 -8 32 -12 37 -8 5 4 69 6 142 4
l132 -3 0 -45 c0 -126 -43 -277 -113 -399 -58 -102 -191 -230 -289 -279 l-77
-39 75 -33 c42 -18 101 -48 131 -66 68 -41 195 -158 252 -232 41 -53 45 -55
61 -41 10 9 43 67 73 128 56 117 99 177 123 177 36 0 -6 -100 -84 -202 -52
-67 -70 -107 -34 -75 28 25 39 21 67 -23 28 -45 32 -46 62 -25 38 26 41 67 22
245 -10 91 -36 329 -58 530 -22 201 -45 421 -51 490 -12 147 -23 207 -57 315
-80 254 -242 446 -472 560 -187 92 -390 124 -578 90z"/>
<path d="M1290 1773 c-8 -3 -27 -17 -42 -31 -63 -59 -16 -167 72 -167 89 0
135 108 72 168 -28 27 -75 41 -102 30z"/>
<path d="M2120 1763 c-8 -3 -27 -17 -42 -31 -63 -59 -16 -167 72 -167 89 0
135 108 72 168 -28 27 -75 41 -102 30z"/>
<path d="M1519 1359 c-16 -10 21 -96 58 -134 l35 -37 30 37 c59 71 164 101
248 70 25 -9 51 -17 59 -18 14 -2 46 72 35 82 -7 8 -453 8 -465 0z"/>
<path d="M2676 658 c-8 -13 -18 -36 -22 -51 -8 -34 -27 -30 -34 8 -4 25 -7 26
-18 12 -11 -13 -8 -25 19 -79 17 -34 42 -89 54 -121 l22 -59 76 62 c42 34 79
65 82 70 3 5 2 41 -1 80 l-7 71 -27 -26 c-42 -40 -75 -33 -104 23 -20 38 -21
39 -40 10z"/>
<path d="M736 653 c-2 -10 -7 -65 -11 -123 -7 -119 -10 -113 86 -178 l46 -31
12 51 c6 28 29 88 51 135 46 98 44 134 -4 98 -43 -32 -125 -6 -141 45 -8 25
-32 26 -39 3z"/>
</g>
</svg>
